<svg width="18" height="22" viewBox="0 0 18 22" fill="none" xmlns="http://www.w3.org/2000/svg">
<rect width="17.5497" height="18.0981" rx="3.29057" transform="matrix(0.984808 -0.173648 0 1 0 3.04785)" fill="url(#paint0_linear_2477_385)"/>
<path d="M9.55701 14.4189V15.2402L7.47693 15.2402V14.4189L9.55701 14.4189ZM10.1029 13.6816L6.93201 13.6816V12.8613L10.1029 12.8613V13.6816ZM8.54919 6.55859C10.0399 6.55862 11.2484 7.76708 11.2484 9.25781C11.2484 9.90842 10.8439 10.3088 10.6039 10.6338C10.3575 10.9675 10.1222 11.3749 10.1566 12.1865L9.80017 12.2021L9.44373 12.2168C9.40081 11.2057 9.71198 10.6425 10.0306 10.2109C10.3558 9.7706 10.5355 9.61031 10.5355 9.25781C10.5355 8.1608 9.6462 7.27151 8.54919 7.27148C7.45222 7.27155 6.56287 8.16082 6.56287 9.25781C6.56288 9.61027 6.74281 9.77065 7.06775 10.2109C7.38639 10.6427 7.69664 11.2066 7.65369 12.2178L7.29822 12.2031L6.94177 12.1875C6.97624 11.3759 6.74096 10.9688 6.49451 10.6348C6.25447 10.3095 5.85 9.90853 5.84998 9.25781C5.84998 7.76711 7.0585 6.55866 8.54919 6.55859Z" fill="#1D1E1E"/>
<defs>
<linearGradient id="paint0_linear_2477_385" x1="8.77486" y1="0" x2="8.77486" y2="18.0981" gradientUnits="userSpaceOnUse">
<stop stop-color="#E5C500"/>
<stop offset="1" stop-color="#FF7300"/>
</linearGradient>
</defs>
</svg>
