<svg width="41" height="42" viewBox="0 0 41 42" fill="none" xmlns="http://www.w3.org/2000/svg">
<rect width="40.7273" height="42" rx="7.63636" fill="url(#paint0_linear_2362_86)"/>
<path d="M18.5576 14.2939C22.4008 13.2378 26.8018 14.9129 31.2949 21.1064L31.1943 21.1787L31.2949 21.251C26.8018 27.4447 22.4008 29.1196 18.5576 28.0635C15.0223 27.0916 12.4657 23.9128 11.127 21.332L11 21.2695C11.0151 21.2392 11.0315 21.2093 11.0469 21.1787C11.0315 21.1482 11.015 21.1182 11 21.0879L11.127 21.0244C12.4659 18.4438 15.0227 15.2656 18.5576 14.2939ZM28.46 21.1787C24.6732 16.5188 21.4953 15.8644 19.165 16.5049C16.8615 17.1381 14.929 19.1353 13.6719 21.1777C14.929 23.2208 16.8609 25.2191 19.165 25.8525C21.4953 26.493 24.6731 25.8388 28.46 21.1787ZM20.624 18.0391C22.523 18.0393 24.0625 19.5795 24.0625 21.4785C24.0621 23.3773 22.5228 24.9168 20.624 24.917C18.725 24.917 17.185 23.3774 17.1846 21.4785C17.1846 19.5793 18.7248 18.0391 20.624 18.0391ZM20.624 20.332C19.991 20.332 19.4775 20.8454 19.4775 21.4785C19.4779 22.1113 19.9912 22.624 20.624 22.624C21.2566 22.6238 21.7691 22.1111 21.7695 21.4785C21.7695 20.8456 21.2569 20.3323 20.624 20.332Z" fill="black"/>
<defs>
<linearGradient id="paint0_linear_2362_86" x1="20.3636" y1="0" x2="20.3636" y2="42" gradientUnits="userSpaceOnUse">
<stop stop-color="#E5C500"/>
<stop offset="1" stop-color="#FF7300"/>
</linearGradient>
</defs>
</svg>
