<svg width="18" height="22" viewBox="0 0 18 22" fill="none" xmlns="http://www.w3.org/2000/svg">
<path d="M11.1201 0C11.5794 0.000119512 12.0228 0.172064 12.3613 0.482422L17.3096 5.01855C17.6887 5.36627 17.9042 5.85762 17.9043 6.37207V19.7412C17.9043 20.7553 17.0824 21.5769 16.0684 21.5771H1.83594C0.821834 21.577 1.23702e-05 20.7553 0 19.7412V1.83594C0.000367912 0.822105 0.822054 0.000128085 1.83594 0H11.1201ZM1.83594 19.7412H16.0684V6.88672H11.4766C10.4625 6.88656 9.64062 6.06393 9.64062 5.0498V1.83594H1.83594V19.7412ZM14.2314 16.9863H4.13086V15.1504H14.2314V16.9863ZM14.2314 12.3955H4.13086V10.5596H14.2314V12.3955ZM7.34473 8.72266H4.13086V6.88672H7.34473V8.72266ZM11.4766 5.0498H14.626L11.4766 2.16211V5.0498Z" fill="black"/>
</svg>
