<svg width="23" height="22" viewBox="0 0 23 22" fill="none" xmlns="http://www.w3.org/2000/svg">
<path d="M9.18164 2.24121H13.7734V0H15.6094V2.24121H17.4463C18.9672 2.24147 20.1999 3.47416 20.2002 4.99512V6.42773H22.4961V8.26367H20.2002V12.8555H22.4961V14.6914H20.2002V16.9326C20.2 18.4536 18.9673 19.6863 17.4463 19.6865H15.6094V21.5781H13.7734V19.6865H9.18164V21.5781H7.3457V19.6865H5.50879C3.98781 19.6863 2.75511 18.4536 2.75488 16.9326V14.6914H0V12.8555H2.75488V8.26367H0V6.42773H2.75488V4.99512C2.75514 3.47416 3.98783 2.24147 5.50879 2.24121H7.3457V0H9.18164V2.24121ZM5.50879 4.07715C5.00205 4.0774 4.59108 4.48838 4.59082 4.99512V16.9326C4.59105 17.4394 5.00204 17.8503 5.50879 17.8506H17.4463C17.953 17.8503 18.364 17.4394 18.3643 16.9326V4.99512C18.364 4.48838 17.953 4.07741 17.4463 4.07715H5.50879ZM13.7725 6.42773C14.7866 6.42773 15.6092 7.24957 15.6094 8.26367V13.7734C15.6092 14.7875 14.7866 15.6094 13.7725 15.6094H9.18164C8.16766 15.6092 7.34586 14.7874 7.3457 13.7734V8.26367C7.34585 7.24968 8.16765 6.42791 9.18164 6.42773H13.7725ZM9.18164 13.7734H13.7725V8.26367H9.18164V13.7734Z" fill="black"/>
</svg>
