<svg width="41" height="42" viewBox="0 0 41 42" fill="none" xmlns="http://www.w3.org/2000/svg">
<rect width="40.7273" height="42" rx="7.63636" fill="url(#paint0_linear_2362_211)"/>
<path d="M20.5 12C24.7971 12 27.3068 13.2816 28.4082 14.415L28.6104 14.6387C28.879 14.9637 28.9761 15.3351 28.9961 15.6475L29 15.7773V27.2637L28.9873 27.4922C28.9582 27.7438 28.8706 28.055 28.6377 28.335C28.1722 28.8945 27.3059 29.4242 26.0352 29.8164C24.7394 30.2164 22.9391 30.5 20.5 30.5C18.0609 30.5 16.2606 30.2164 14.9648 29.8164C13.6941 29.4242 12.8278 28.8945 12.3623 28.335C12.1294 28.055 12.0418 27.7438 12.0127 27.4922L12 27.2637V15.7773L12.0039 15.6475C12.0239 15.3351 12.121 14.9637 12.3896 14.6387L12.5918 14.415C13.6932 13.2816 16.2029 12 20.5 12ZM14 27.1533C14.2039 27.3306 14.6672 27.6313 15.5547 27.9053C16.6147 28.2325 18.208 28.5 20.5 28.5C22.792 28.5 24.3853 28.2325 25.4453 27.9053C26.3328 27.6313 26.7961 27.3306 27 27.1533V23.1377C24.0758 24.4039 19.0997 25.4046 14 23.1279V27.1533ZM14 20.9072C19.2782 23.6803 24.5795 22.2157 27 20.9219V17.1377C24.0758 18.4039 19.0997 19.4046 14 17.1279V20.9072ZM20.5 14C17.5213 14 15.709 14.6711 14.7354 15.2656C19.2878 17.3277 23.7558 16.3849 26.2744 15.2725C25.3032 14.6764 23.4891 14 20.5 14Z" fill="black"/>
<defs>
<linearGradient id="paint0_linear_2362_211" x1="20.3636" y1="0" x2="20.3636" y2="42" gradientUnits="userSpaceOnUse">
<stop stop-color="#E5C500"/>
<stop offset="1" stop-color="#FF7300"/>
</linearGradient>
</defs>
</svg>
