<svg width="41" height="42" viewBox="0 0 41 42" fill="none" xmlns="http://www.w3.org/2000/svg">
<rect width="40.7273" height="42" rx="7.63636" fill="url(#paint0_linear_2362_160)"/>
<path d="M18.1816 12.2412H22.7734V10H24.6094V12.2412H26.4463C27.9672 12.2415 29.1999 13.4742 29.2002 14.9951V16.4277H31.4961V18.2637H29.2002V22.8555H31.4961V24.6914H29.2002V26.9326C29.2 28.4536 27.9673 29.6863 26.4463 29.6865H24.6094V31.5781H22.7734V29.6865H18.1816V31.5781H16.3457V29.6865H14.5088C12.9878 29.6863 11.7551 28.4536 11.7549 26.9326V24.6914H9V22.8555H11.7549V18.2637H9V16.4277H11.7549V14.9951C11.7551 13.4742 12.9878 12.2415 14.5088 12.2412H16.3457V10H18.1816V12.2412ZM14.5088 14.0771C14.0021 14.0774 13.5911 14.4884 13.5908 14.9951V26.9326C13.591 27.4394 14.002 27.8503 14.5088 27.8506H26.4463C26.953 27.8503 27.364 27.4394 27.3643 26.9326V14.9951C27.364 14.4884 26.953 14.0774 26.4463 14.0771H14.5088ZM22.7725 16.4277C23.7866 16.4277 24.6092 17.2496 24.6094 18.2637V23.7734C24.6092 24.7875 23.7866 25.6094 22.7725 25.6094H18.1816C17.1677 25.6092 16.3459 24.7874 16.3457 23.7734V18.2637C16.3458 17.2497 17.1677 16.4279 18.1816 16.4277H22.7725ZM18.1816 23.7734H22.7725V18.2637H18.1816V23.7734Z" fill="black"/>
<defs>
<linearGradient id="paint0_linear_2362_160" x1="20.3636" y1="0" x2="20.3636" y2="42" gradientUnits="userSpaceOnUse">
<stop stop-color="#E5C500"/>
<stop offset="1" stop-color="#FF7300"/>
</linearGradient>
</defs>
</svg>
