<svg width="22" height="18" viewBox="0 0 22 18" fill="none" xmlns="http://www.w3.org/2000/svg">
<path d="M12.958 0C13.5574 0.000140714 14.1204 0.292899 14.4639 0.78418L15.8408 2.75391H19.7412C20.7551 2.7542 21.577 3.57688 21.5771 4.59082V16.0684C21.5771 17.0824 20.7552 17.904 19.7412 17.9043H1.83594C0.821763 17.9042 0 17.0825 0 16.0684V4.59082C0.000124233 3.57674 0.82184 2.75396 1.83594 2.75391H5.73633L7.11328 0.78418C7.45688 0.292975 8.01967 0 8.61914 0H12.958ZM7.24121 3.80664C6.89778 4.29783 6.33564 4.59057 5.73633 4.59082H1.83594V16.0684H19.7412V4.59082H15.8408C15.2414 4.59069 14.6794 4.2979 14.3359 3.80664L12.958 1.83594H8.61914L7.24121 3.80664ZM11.0176 5.05078C13.5531 5.05083 15.6084 7.10607 15.6084 9.6416C15.6082 12.1769 13.5529 14.2324 11.0176 14.2324C8.48217 14.2324 6.427 12.177 6.42676 9.6416C6.42676 7.10605 8.48202 5.05078 11.0176 5.05078ZM11.0176 6.88672C9.49625 6.88672 8.2627 8.12027 8.2627 9.6416C8.26293 11.1627 9.49639 12.3965 11.0176 12.3965C12.5387 12.3964 13.7722 11.1627 13.7725 9.6416C13.7725 8.1203 12.5389 6.88676 11.0176 6.88672Z" fill="black"/>
</svg>
